<svg aria-hidden="true" style="position: absolute; width: 0; height: 0; overflow: hidden;" version="1.1" xmlns="http://www.w3.org/2000/svg" xmlns:xlink="http://www.w3.org/1999/xlink">
<defs>
<symbol id="icon-archCircle" viewBox="0 0 32 32">
<path stroke-linejoin="miter" stroke-linecap="butt" stroke-miterlimit="4" stroke-width="0.6957" d="M16 0.348c8.644 0 15.652 7.008 15.652 15.652s-7.008 15.652-15.652 15.652c-8.644 0-15.652-7.008-15.652-15.652s7.008-15.652 15.652-15.652z"></path>
<path fill="none" stroke="#fff" style="stroke: var(--color1, #fff)" stroke-linejoin="miter" stroke-linecap="butt" stroke-miterlimit="4" stroke-width="0.6957" d="M15.304 18.783l2.783-2.783-2.783-2.783"></path>
</symbol>
<symbol id="icon-scroll" viewBox="0 0 22 32">
<path stroke-linejoin="miter" stroke-linecap="butt" stroke-miterlimit="4" stroke-width="0.4" d="M10.857 0.2h0c5.615 0 10.166 4.552 10.166 10.166v11.268c0 5.615-4.552 10.166-10.166 10.166h-0c-5.615 0-10.166-4.552-10.166-10.166v-11.268c0-5.615 4.552-10.166 10.166-10.166z"></path>
<path fill="none" stroke="#fff" style="stroke: var(--color1, #fff)" stroke-linejoin="miter" stroke-linecap="butt" stroke-miterlimit="4" stroke-width="0.4" d="M10.857 5.409v5.408"></path>
</symbol>
<symbol id="icon-dash" viewBox="0 0 143 32">
<path d="M72.233 24.436h0.145c0.136 0 0.262-0.058 0.378-0.175s0.213-0.252 0.291-0.407c0.097-0.155 0.165-0.32 0.204-0.495 0.039-0.194 0.058-0.368 0.058-0.524v-15.302l-7.505 17.513-7.127-16.611v14.4c0 0.155 0.019 0.33 0.058 0.524 0.039 0.175 0.097 0.339 0.175 0.495 0.097 0.155 0.204 0.291 0.32 0.407s0.252 0.175 0.407 0.175h0.145v0.291h-3.171v-0.291h0.145c0.136 0 0.262-0.058 0.378-0.175s0.213-0.252 0.291-0.407c0.078-0.155 0.136-0.32 0.175-0.495 0.039-0.194 0.058-0.368 0.058-0.524v-15.505c0-0.136-0.019-0.291-0.058-0.465s-0.097-0.339-0.175-0.495c-0.078-0.155-0.175-0.281-0.291-0.378-0.116-0.116-0.242-0.175-0.378-0.175h-0.145v-0.291h2.967l6.749 15.913 6.749-15.913h3.287v0.291h-0.145c-0.155 0-0.291 0.058-0.407 0.175-0.116 0.097-0.223 0.223-0.32 0.378-0.078 0.155-0.136 0.32-0.175 0.495s-0.058 0.33-0.058 0.465v15.505c0 0.155 0.019 0.33 0.058 0.524 0.039 0.175 0.097 0.339 0.175 0.495 0.097 0.155 0.204 0.291 0.32 0.407s0.252 0.175 0.407 0.175h0.145v0.291h-4.131v-0.291zM80.941 24.436h0.145c0.155 0 0.291-0.048 0.407-0.145 0.116-0.116 0.213-0.252 0.291-0.407 0.097-0.155 0.165-0.32 0.204-0.495 0.058-0.175 0.087-0.339 0.087-0.495v-15.564c0-0.136-0.029-0.291-0.087-0.465-0.039-0.175-0.107-0.339-0.204-0.495-0.078-0.155-0.175-0.281-0.291-0.378-0.116-0.116-0.252-0.175-0.407-0.175h-0.145v-0.291h11.2v2.705h-0.291c-0.039-0.446-0.213-0.834-0.524-1.164-0.31-0.349-0.795-0.524-1.455-0.524h-5.847v7.36h4.829c0.446 0 0.815-0.136 1.105-0.407 0.31-0.272 0.465-0.592 0.465-0.96h0.291v3.636h-0.291c0-0.349-0.145-0.65-0.436-0.902s-0.669-0.378-1.135-0.378h-4.829v8.815h6.371c0.368 0 0.688-0.087 0.96-0.262s0.495-0.378 0.669-0.611c0.194-0.252 0.33-0.514 0.407-0.785 0.097-0.291 0.145-0.533 0.145-0.727h0.291v3.404h-11.927v-0.291zM108.413 24.436h0.145c0.136 0 0.262-0.048 0.378-0.145 0.116-0.116 0.213-0.252 0.291-0.407 0.097-0.175 0.165-0.349 0.204-0.524 0.039-0.194 0.058-0.368 0.058-0.524v-7.913h-9.309v7.913c0 0.155 0.019 0.33 0.058 0.524 0.039 0.175 0.097 0.339 0.175 0.495s0.165 0.291 0.262 0.407c0.116 0.116 0.252 0.175 0.407 0.175h0.145v0.291h-4.073v-0.291h0.145c0.136 0 0.262-0.048 0.378-0.145 0.116-0.116 0.213-0.252 0.291-0.407 0.097-0.175 0.165-0.349 0.204-0.524 0.039-0.194 0.058-0.368 0.058-0.524v-15.505c0-0.136-0.019-0.291-0.058-0.465s-0.097-0.339-0.175-0.495c-0.078-0.155-0.175-0.281-0.291-0.378-0.116-0.116-0.252-0.175-0.407-0.175h-0.145v-0.291h4.073v0.291h-0.145c-0.155 0-0.291 0.058-0.407 0.175-0.116 0.097-0.213 0.223-0.291 0.378-0.058 0.155-0.107 0.32-0.145 0.495s-0.058 0.33-0.058 0.465v6.575h9.309v-6.575c0-0.136-0.019-0.291-0.058-0.465s-0.097-0.339-0.175-0.495c-0.078-0.155-0.175-0.281-0.291-0.378-0.116-0.116-0.252-0.175-0.407-0.175h-0.145v-0.291h4.073v0.291h-0.145c-0.155 0-0.291 0.058-0.407 0.175-0.116 0.097-0.213 0.223-0.291 0.378-0.058 0.155-0.107 0.32-0.145 0.495s-0.058 0.33-0.058 0.465v15.505c0 0.155 0.019 0.33 0.058 0.524 0.058 0.175 0.126 0.339 0.204 0.495s0.165 0.291 0.262 0.407c0.116 0.116 0.242 0.175 0.378 0.175h0.145v0.291h-4.073v-0.291zM116.706 24.436h0.145c0.136 0 0.252-0.058 0.349-0.175 0.116-0.116 0.213-0.252 0.291-0.407s0.136-0.32 0.175-0.495c0.039-0.194 0.058-0.368 0.058-0.524v-15.505c0-0.136-0.029-0.291-0.087-0.465-0.039-0.175-0.097-0.339-0.175-0.495s-0.175-0.281-0.291-0.378c-0.097-0.116-0.213-0.175-0.349-0.175h-0.145v-0.291h4.102v0.291h-0.233c-0.136 0.019-0.262 0.087-0.378 0.204-0.097 0.116-0.184 0.252-0.262 0.407s-0.136 0.32-0.175 0.495c-0.039 0.155-0.058 0.291-0.058 0.407v6.575h1.92c0.175-1.105 0.514-2.172 1.018-3.2 0.524-1.047 1.193-1.978 2.007-2.793s1.775-1.464 2.88-1.949c1.105-0.485 2.356-0.727 3.753-0.727 1.513 0 2.851 0.272 4.015 0.815 1.183 0.524 2.182 1.241 2.996 2.153 0.815 0.892 1.425 1.939 1.833 3.142 0.427 1.183 0.64 2.424 0.64 3.724 0 1.455-0.252 2.793-0.756 4.015s-1.202 2.269-2.095 3.142c-0.892 0.873-1.939 1.561-3.142 2.065-1.202 0.485-2.502 0.727-3.898 0.727-1.493 0-2.822-0.272-3.985-0.815-1.144-0.543-2.114-1.261-2.909-2.153s-1.406-1.92-1.833-3.084c-0.407-1.164-0.611-2.376-0.611-3.636v-0.436h-1.833v7.942c0 0.155 0.019 0.32 0.058 0.495 0.058 0.175 0.126 0.349 0.204 0.524 0.078 0.155 0.175 0.291 0.291 0.407s0.242 0.175 0.378 0.175h0.204v0.291h-4.102v-0.291zM131.222 24c1.299-0.058 2.424-0.349 3.375-0.873 0.97-0.543 1.765-1.222 2.385-2.036 0.621-0.834 1.076-1.745 1.367-2.735 0.31-0.989 0.465-1.968 0.465-2.938 0-1.067-0.184-2.143-0.553-3.229s-0.892-2.065-1.571-2.938c-0.679-0.892-1.513-1.61-2.502-2.153-0.97-0.562-2.075-0.844-3.316-0.844-1.202 0-2.269 0.272-3.2 0.815-0.912 0.524-1.687 1.202-2.327 2.036-0.621 0.834-1.096 1.765-1.425 2.793s-0.495 2.036-0.495 3.025c0 1.067 0.184 2.143 0.553 3.229 0.388 1.067 0.921 2.036 1.6 2.909 0.698 0.873 1.522 1.581 2.473 2.124s2.007 0.815 3.171 0.815z"></path>
<path stroke-linejoin="miter" stroke-linecap="butt" stroke-miterlimit="4" stroke-width="1.4545" d="M0 13.091h33.455"></path>
<path stroke-linejoin="miter" stroke-linecap="butt" stroke-miterlimit="4" stroke-width="1.4545" d="M0 21.818h33.455"></path>
</symbol>
<symbol id="icon-logo" viewBox="0 0 93 32">
<path d="M0.613 28.46h0.068c0.064 0 0.123-0.027 0.177-0.082s0.1-0.118 0.136-0.191c0.045-0.073 0.077-0.15 0.095-0.232 0.018-0.091 0.027-0.172 0.027-0.245v-7.244c0-0.064-0.009-0.136-0.027-0.218s-0.050-0.159-0.095-0.232c-0.036-0.082-0.086-0.145-0.15-0.191-0.054-0.054-0.118-0.082-0.191-0.082h-0.068v-0.136h2.233c0.844 0 1.502 0.186 1.974 0.558 0.481 0.372 0.722 0.867 0.722 1.484 0 0.263-0.045 0.499-0.136 0.708s-0.209 0.395-0.354 0.558c-0.136 0.163-0.286 0.304-0.449 0.422-0.163 0.109-0.318 0.2-0.463 0.272 0.381 0.073 0.699 0.195 0.953 0.368s0.458 0.372 0.613 0.599c0.163 0.218 0.277 0.454 0.34 0.708s0.095 0.504 0.095 0.749c0 0.472-0.086 0.872-0.259 1.198-0.172 0.318-0.404 0.581-0.694 0.79-0.281 0.2-0.608 0.345-0.98 0.436-0.363 0.091-0.74 0.136-1.13 0.136h-2.437v-0.136zM5.188 26.117c-0.073-0.699-0.309-1.239-0.708-1.62s-0.962-0.572-1.688-0.572h-0.763v4.221h0.79c0.735 0 1.312-0.163 1.729-0.49 0.427-0.336 0.64-0.799 0.64-1.389v-0.15zM4.63 21.774c-0.027-0.526-0.213-0.944-0.558-1.253-0.336-0.309-0.79-0.463-1.362-0.463h-0.681v3.431h0.708c0.381 0 0.69-0.050 0.926-0.15 0.245-0.1 0.44-0.227 0.586-0.381 0.145-0.163 0.245-0.34 0.3-0.531s0.082-0.377 0.082-0.558v-0.095zM8.092 28.46h0.068c0.073 0 0.136-0.023 0.191-0.068 0.054-0.054 0.1-0.118 0.136-0.191 0.045-0.073 0.077-0.15 0.095-0.232 0.027-0.082 0.041-0.159 0.041-0.232v-7.285c0-0.064-0.014-0.136-0.041-0.218-0.018-0.082-0.050-0.159-0.095-0.232-0.036-0.073-0.082-0.132-0.136-0.177-0.054-0.054-0.118-0.082-0.191-0.082h-0.068v-0.136h5.243v1.266h-0.136c-0.018-0.209-0.1-0.39-0.245-0.545-0.145-0.163-0.372-0.245-0.681-0.245h-2.737v3.445h2.26c0.209 0 0.381-0.064 0.517-0.191 0.145-0.127 0.218-0.277 0.218-0.449h0.136v1.702h-0.136c0-0.163-0.068-0.304-0.204-0.422s-0.313-0.177-0.531-0.177h-2.26v4.126h2.982c0.172 0 0.322-0.041 0.449-0.123s0.232-0.177 0.313-0.286c0.091-0.118 0.154-0.241 0.191-0.368 0.045-0.136 0.068-0.25 0.068-0.34h0.136v1.593h-5.583v-0.136zM19.859 19.963c-0.672 0-1.257 0.123-1.757 0.368-0.49 0.236-0.899 0.549-1.226 0.94-0.327 0.381-0.572 0.812-0.735 1.294-0.154 0.481-0.232 0.958-0.232 1.43 0 0.536 0.104 1.062 0.313 1.58 0.209 0.508 0.495 0.962 0.858 1.362 0.372 0.39 0.803 0.708 1.294 0.953 0.49 0.236 1.021 0.354 1.593 0.354 0.163 0 0.354-0.018 0.572-0.054 0.227-0.036 0.449-0.104 0.667-0.204 0.218-0.109 0.418-0.259 0.599-0.449 0.191-0.191 0.336-0.44 0.436-0.749h0.136v1.512c-0.136 0-0.281 0.018-0.436 0.054-0.145 0.036-0.309 0.077-0.49 0.123-0.236 0.064-0.499 0.123-0.79 0.177-0.281 0.054-0.581 0.082-0.899 0.082-0.79 0-1.484-0.136-2.083-0.409s-1.098-0.626-1.498-1.062c-0.399-0.436-0.699-0.926-0.899-1.471-0.2-0.554-0.3-1.112-0.3-1.675s0.1-1.121 0.3-1.675c0.2-0.554 0.504-1.049 0.912-1.484 0.409-0.445 0.921-0.803 1.539-1.076s1.344-0.409 2.179-0.409c0.3 0 0.567 0.027 0.803 0.082 0.245 0.054 0.463 0.109 0.654 0.163 0.136 0.045 0.259 0.082 0.368 0.109 0.118 0.018 0.232 0.027 0.34 0.027v1.512h-0.136c-0.054-0.281-0.154-0.513-0.3-0.694-0.145-0.191-0.318-0.336-0.517-0.436-0.191-0.1-0.399-0.168-0.626-0.204-0.218-0.045-0.431-0.068-0.64-0.068zM29.8 28.46h0.068c0.064 0 0.123-0.023 0.177-0.068 0.054-0.054 0.1-0.118 0.136-0.191 0.045-0.082 0.077-0.163 0.095-0.245 0.018-0.091 0.027-0.172 0.027-0.245v-3.704h-4.357v3.704c0 0.073 0.009 0.154 0.027 0.245 0.018 0.082 0.045 0.159 0.082 0.232s0.077 0.136 0.123 0.191c0.054 0.054 0.118 0.082 0.191 0.082h0.068v0.136h-1.906v-0.136h0.068c0.064 0 0.123-0.023 0.177-0.068 0.054-0.054 0.1-0.118 0.136-0.191 0.045-0.082 0.077-0.163 0.095-0.245 0.018-0.091 0.027-0.172 0.027-0.245v-7.258c0-0.064-0.009-0.136-0.027-0.218s-0.045-0.159-0.082-0.232c-0.036-0.073-0.082-0.132-0.136-0.177-0.054-0.054-0.118-0.082-0.191-0.082h-0.068v-0.136h1.906v0.136h-0.068c-0.073 0-0.136 0.027-0.191 0.082-0.054 0.045-0.1 0.104-0.136 0.177-0.027 0.073-0.050 0.15-0.068 0.232s-0.027 0.154-0.027 0.218v3.077h4.357v-3.077c0-0.064-0.009-0.136-0.027-0.218s-0.045-0.159-0.082-0.232c-0.036-0.073-0.082-0.132-0.136-0.177-0.054-0.054-0.118-0.082-0.191-0.082h-0.068v-0.136h1.906v0.136h-0.068c-0.073 0-0.136 0.027-0.191 0.082-0.054 0.045-0.1 0.104-0.136 0.177-0.027 0.073-0.050 0.15-0.068 0.232s-0.027 0.154-0.027 0.218v7.258c0 0.073 0.009 0.154 0.027 0.245 0.027 0.082 0.059 0.159 0.095 0.232s0.077 0.136 0.123 0.191c0.054 0.054 0.113 0.082 0.177 0.082h0.068v0.136h-1.906v-0.136zM38.856 28.46h0.068c0.218 0 0.327-0.1 0.327-0.3 0-0.073-0.014-0.15-0.041-0.232l-1.226-3.309h-2.383l-1.185 3.254c-0.027 0.073-0.041 0.141-0.041 0.204 0 0.118 0.032 0.213 0.095 0.286 0.064 0.064 0.132 0.095 0.204 0.095h0.068v0.136h-1.511v-0.136h0.068c0.118 0 0.231-0.068 0.34-0.204 0.118-0.145 0.213-0.313 0.286-0.504l3.118-8.306 3.050 8.225c0.064 0.182 0.15 0.359 0.259 0.531 0.118 0.172 0.268 0.259 0.449 0.259h0.068v0.136h-2.015v-0.136zM35.738 24.157h2.097l-1.048-2.846-1.048 2.846zM46.858 28.46h0.068c0.064 0 0.123-0.027 0.177-0.082s0.1-0.118 0.136-0.191c0.045-0.073 0.077-0.15 0.095-0.232 0.018-0.091 0.027-0.172 0.027-0.245v-7.244c0-0.064-0.009-0.136-0.027-0.218s-0.050-0.159-0.095-0.232c-0.036-0.082-0.086-0.145-0.15-0.191-0.054-0.054-0.118-0.082-0.191-0.082h-0.068v-0.136h2.233c0.844 0 1.502 0.186 1.974 0.558 0.481 0.372 0.722 0.867 0.722 1.484 0 0.263-0.045 0.499-0.136 0.708s-0.209 0.395-0.354 0.558c-0.136 0.163-0.286 0.304-0.449 0.422-0.163 0.109-0.318 0.2-0.463 0.272 0.381 0.073 0.699 0.195 0.953 0.368s0.458 0.372 0.613 0.599c0.163 0.218 0.277 0.454 0.34 0.708s0.095 0.504 0.095 0.749c0 0.472-0.086 0.872-0.259 1.198-0.173 0.318-0.404 0.581-0.694 0.79-0.281 0.2-0.608 0.345-0.98 0.436-0.363 0.091-0.74 0.136-1.13 0.136h-2.437v-0.136zM51.433 26.117c-0.073-0.699-0.309-1.239-0.708-1.62s-0.962-0.572-1.688-0.572h-0.763v4.221h0.79c0.735 0 1.312-0.163 1.729-0.49 0.427-0.336 0.64-0.799 0.64-1.389v-0.15zM50.875 21.774c-0.027-0.526-0.213-0.944-0.558-1.253-0.336-0.309-0.79-0.463-1.362-0.463h-0.681v3.431h0.708c0.381 0 0.69-0.050 0.926-0.15 0.245-0.1 0.44-0.227 0.586-0.381 0.145-0.163 0.245-0.34 0.3-0.531s0.082-0.377 0.082-0.558v-0.095zM58.652 19.963c-0.672 0-1.257 0.123-1.757 0.368-0.49 0.236-0.899 0.549-1.226 0.94-0.327 0.381-0.572 0.812-0.735 1.294-0.154 0.481-0.231 0.958-0.231 1.43 0 0.536 0.104 1.062 0.313 1.58 0.209 0.508 0.495 0.962 0.858 1.362 0.372 0.39 0.803 0.708 1.294 0.953 0.49 0.236 1.021 0.354 1.593 0.354 0.163 0 0.354-0.018 0.572-0.054 0.227-0.036 0.449-0.104 0.667-0.204 0.218-0.109 0.418-0.259 0.599-0.449 0.191-0.191 0.336-0.44 0.436-0.749h0.136v1.512c-0.136 0-0.281 0.018-0.436 0.054-0.145 0.036-0.309 0.077-0.49 0.123-0.236 0.064-0.499 0.123-0.79 0.177-0.281 0.054-0.581 0.082-0.899 0.082-0.79 0-1.484-0.136-2.083-0.409s-1.098-0.626-1.498-1.062c-0.399-0.436-0.699-0.926-0.899-1.471-0.2-0.554-0.3-1.112-0.3-1.675s0.1-1.121 0.3-1.675c0.2-0.554 0.504-1.049 0.912-1.484 0.408-0.445 0.921-0.803 1.539-1.076s1.344-0.409 2.179-0.409c0.3 0 0.567 0.027 0.803 0.082 0.245 0.054 0.463 0.109 0.654 0.163 0.136 0.045 0.259 0.082 0.368 0.109 0.118 0.018 0.231 0.027 0.34 0.027v1.512h-0.136c-0.054-0.281-0.154-0.513-0.3-0.694-0.145-0.191-0.318-0.336-0.517-0.436-0.191-0.1-0.399-0.168-0.626-0.204-0.218-0.045-0.431-0.068-0.64-0.068zM63.16 28.46h0.068c0.073 0 0.136-0.023 0.191-0.068 0.054-0.054 0.1-0.118 0.136-0.191 0.045-0.073 0.077-0.15 0.095-0.232 0.027-0.082 0.041-0.159 0.041-0.232v-7.285c0-0.064-0.014-0.136-0.041-0.218-0.018-0.082-0.050-0.159-0.095-0.232-0.036-0.073-0.082-0.132-0.136-0.177-0.054-0.054-0.118-0.082-0.191-0.082h-0.068v-0.136h5.243v1.266h-0.136c-0.018-0.209-0.1-0.39-0.245-0.545-0.145-0.163-0.372-0.245-0.681-0.245h-2.737v3.445h2.26c0.209 0 0.381-0.064 0.517-0.191 0.145-0.127 0.218-0.277 0.218-0.449h0.136v1.702h-0.136c0-0.163-0.068-0.304-0.204-0.422s-0.313-0.177-0.531-0.177h-2.26v4.126h2.982c0.173 0 0.322-0.041 0.449-0.123s0.232-0.177 0.313-0.286c0.091-0.118 0.154-0.241 0.191-0.368 0.045-0.136 0.068-0.25 0.068-0.34h0.136v1.593h-5.583v-0.136zM72.479 28.46h0.068v0.136h-1.961v-0.136h0.068c0.072 0 0.136-0.023 0.191-0.068 0.054-0.054 0.099-0.118 0.136-0.191 0.045-0.073 0.077-0.15 0.095-0.232s0.027-0.159 0.027-0.232v-7.285c0-0.064-0.010-0.136-0.027-0.218s-0.050-0.159-0.095-0.232c-0.037-0.073-0.082-0.132-0.136-0.177-0.054-0.054-0.118-0.082-0.191-0.082h-0.068v-0.136h5.243v1.443h-0.136c0-0.327-0.073-0.567-0.218-0.722-0.136-0.163-0.354-0.245-0.654-0.245h-2.791v7.653c0 0.073 0.009 0.15 0.027 0.232s0.045 0.159 0.082 0.232c0.045 0.073 0.095 0.136 0.15 0.191 0.054 0.045 0.118 0.068 0.191 0.068zM83.487 28.119v1.702h-0.136c-0.009-0.118-0.041-0.25-0.095-0.395s-0.131-0.281-0.231-0.409c-0.091-0.118-0.2-0.218-0.327-0.3s-0.268-0.123-0.422-0.123h-6.277c-0.155 0-0.295 0.041-0.422 0.123-0.127 0.091-0.24 0.195-0.34 0.313-0.091 0.127-0.168 0.263-0.231 0.409-0.054 0.145-0.086 0.272-0.095 0.381h-0.136v-1.702h0.599c0.291 0 0.495-0.168 0.613-0.504l3.132-8.211 3.159 8.17c0.063 0.136 0.15 0.263 0.259 0.381 0.109 0.109 0.236 0.163 0.381 0.163h0.572zM76.284 28.119h5.243l-2.628-6.768-2.614 6.768zM90.613 28.46h0.068c0.218 0 0.327-0.1 0.327-0.3 0-0.073-0.014-0.15-0.041-0.232l-1.226-3.309h-2.383l-1.185 3.254c-0.027 0.073-0.041 0.141-0.041 0.204 0 0.118 0.031 0.213 0.095 0.286 0.063 0.064 0.131 0.095 0.204 0.095h0.068v0.136h-1.511v-0.136h0.068c0.118 0 0.231-0.068 0.34-0.204 0.118-0.145 0.213-0.313 0.286-0.504l3.118-8.306 3.050 8.225c0.063 0.182 0.15 0.359 0.259 0.531 0.118 0.172 0.268 0.259 0.449 0.259h0.068v0.136h-2.015v-0.136zM87.495 24.157h2.097l-1.049-2.846-1.049 2.846z"></path>
<path stroke-linejoin="miter" stroke-linecap="butt" stroke-miterlimit="4" stroke-width="0.6809" d="M49.534 6.128c0 1.586-0.772 3.046-1.574 4.13-0.398 0.538-0.797 0.975-1.096 1.276-0.104 0.105-0.196 0.193-0.271 0.264-0.075-0.070-0.167-0.159-0.271-0.264-0.299-0.301-0.698-0.738-1.096-1.276-0.802-1.084-1.574-2.544-1.574-4.13s0.772-3.046 1.574-4.13c0.398-0.538 0.797-0.975 1.096-1.276 0.104-0.105 0.196-0.193 0.271-0.264 0.075 0.070 0.167 0.159 0.271 0.264 0.299 0.301 0.698 0.738 1.096 1.276 0.802 1.084 1.574 2.544 1.574 4.13z"></path>
<path stroke-linejoin="miter" stroke-linecap="butt" stroke-miterlimit="4" stroke-width="0.6809" d="M45.315 5.978c0.995 1.135 1.384 2.79 1.514 4.209 0.065 0.703 0.065 1.334 0.048 1.788-0.006 0.174-0.015 0.322-0.023 0.438-0.101 0.009-0.231 0.019-0.383 0.027-0.398 0.019-0.95 0.019-1.566-0.055-1.243-0.149-2.693-0.593-3.688-1.728s-1.384-2.79-1.515-4.209c-0.065-0.703-0.065-1.333-0.048-1.788 0.006-0.174 0.015-0.322 0.023-0.438 0.101-0.009 0.231-0.019 0.383-0.026 0.398-0.019 0.95-0.019 1.566 0.055 1.243 0.149 2.694 0.593 3.688 1.728z"></path>
<path stroke-linejoin="miter" stroke-linecap="butt" stroke-miterlimit="4" stroke-width="0.6809" d="M48.782 5.978c-0.995 1.135-1.384 2.79-1.514 4.209-0.065 0.703-0.065 1.334-0.048 1.788 0.006 0.174 0.015 0.322 0.023 0.438 0.101 0.009 0.231 0.019 0.383 0.027 0.398 0.019 0.95 0.019 1.566-0.055 1.243-0.149 2.693-0.593 3.688-1.728s1.384-2.79 1.515-4.209c0.065-0.703 0.065-1.333 0.048-1.788-0.006-0.174-0.015-0.322-0.023-0.438-0.101-0.009-0.231-0.019-0.383-0.026-0.398-0.019-0.95-0.019-1.566 0.055-1.243 0.149-2.694 0.593-3.688 1.728z"></path>
<path stroke-linejoin="miter" stroke-linecap="butt" stroke-miterlimit="4" stroke-width="0.6809" d="M32 8.17h-30.638"></path>
<path stroke-linejoin="miter" stroke-linecap="butt" stroke-miterlimit="4" stroke-width="0.6809" d="M92.596 8.17h-31.319"></path>
</symbol>
<symbol id="icon-vk" viewBox="0 0 31 32">
<path stroke-linejoin="miter" stroke-linecap="butt" stroke-miterlimit="4" stroke-width="1.2308" d="M4.923 1.436h20.923c2.379 0 4.308 1.929 4.308 4.308v20.923c0 2.379-1.929 4.308-4.308 4.308h-20.923c-2.379 0-4.308-1.929-4.308-4.308v-20.923c0-2.379 1.929-4.308 4.308-4.308z"></path>
<path d="M22.582 18.726c1.485 1.439 1.794 2.143 1.844 2.23 0.613 1.067-0.68 1.151-0.68 1.151l-2.477 0.037c0 0-0.535 0.11-1.234-0.395-0.928-0.663-2.196-2.394-2.875-2.169-0.691 0.228-0.471 2.042-0.471 2.042s0.006 0.222-0.151 0.401c-0.173 0.187-0.507 0.115-0.507 0.115h-0.713c0 0-2.644 0.012-4.801-2.336-2.349-2.558-4.313-7.343-4.313-7.343s-0.12-0.303 0.008-0.464c0.148-0.182 0.546-0.179 0.546-0.179h2.65c0 0 0.248 0.035 0.426 0.173 0.15 0.113 0.231 0.326 0.231 0.326s0.32 0.891 0.889 1.918c1.106 2.002 1.622 2.44 1.998 2.224 0.546-0.314 0.382-2.829 0.382-2.829s0.011-0.914-0.276-1.321c-0.223-0.317-0.638-0.41-0.822-0.436-0.15-0.017 0.095-0.381 0.412-0.542 0.476-0.242 1.321-0.26 2.315-0.248 0.775 0.009 1.067-0.003 1.067-0.003 0.914 0.231 0.605 1.125 0.605 3.259 0 0.686-0.12 1.65 0.354 1.967 0.203 0.141 0.933 0.162 2.173-2.045 0.591-1.047 1.056-2.030 1.056-2.030s0.1-0.222 0.248-0.314c0.156-0.098 0.362-0.098 0.362-0.098l2.789 0.014c0 0 0.839-0.11 0.972 0.288 0.142 0.415-0.343 1.142-1.48 2.731-1.872 2.61-2.081 2.368-0.529 3.876z"></path>
</symbol>
<symbol id="icon-whatsapp" viewBox="0 0 32 32">
<path d="M13.905 8.441c-0.141-0.678-0.414-0.743-0.662-0.8-0.202-0.048-0.434-0.093-0.667-0.137-0.229-0.044-0.626-0.023-1.016 0.293-0.393 0.313-1.467 1.050-1.821 2.9-0.353 1.847 0.556 3.874 0.681 4.157 0.128 0.281 1.617 4.625 4.87 6.808 2.705 1.812 3.352 1.679 4 1.739 0.652 0.057 2.237-0.516 2.694-1.339 0.457-0.82 0.601-1.572 0.545-1.746s-0.271-0.311-0.585-0.567c-0.311-0.255-1.851-1.489-2.148-1.677-0.295-0.185-0.515-0.291-0.819 0.039s-1.134 1.050-1.386 1.262c-0.252 0.212-0.458 0.204-0.773-0.048-0.311-0.255-1.357-0.865-2.444-2.4-0.845-1.194-1.311-2.556-1.442-2.972-0.132-0.413 0.088-0.583 0.299-0.738 0.19-0.137 0.434-0.373 0.651-0.559 0.214-0.187 0.301-0.33 0.466-0.559 0.163-0.229 0.147-0.459 0.097-0.664s-0.373-2.191-0.54-2.992z"></path>
<path d="M4.611 25.212l0.562 0.187 0.104-0.313-0.211-0.253-0.455 0.379zM2.831 30.551l-0.562-0.187-0.331 0.993 1.022-0.227-0.129-0.579zM9.523 29.064l0.259-0.533-0.186-0.091-0.202 0.045 0.129 0.578zM30.222 15.737c0 7.855-6.368 14.222-14.222 14.222v1.185c8.509 0 15.407-6.898 15.407-15.407h-1.185zM16 1.514c7.855 0 14.222 6.367 14.222 14.222h1.185c0-8.509-6.898-15.407-15.407-15.407v1.185zM1.778 15.737c0-7.855 6.367-14.222 14.222-14.222v-1.185c-8.509 0-15.407 6.898-15.407 15.407h1.185zM5.066 24.833c-2.054-2.466-3.289-5.636-3.289-9.096h-1.185c0 3.747 1.339 7.184 3.563 9.855l0.911-0.759zM3.393 30.739l1.78-5.339-1.124-0.375-1.78 5.339 1.124 0.375zM9.395 28.486l-6.692 1.487 0.257 1.157 6.692-1.487-0.257-1.157zM16 29.959c-2.231 0-4.34-0.513-6.217-1.427l-0.519 1.066c2.036 0.991 4.322 1.547 6.736 1.547v-1.185z"></path>
</symbol>
<symbol id="icon-fb" viewBox="0 0 32 32">
<path stroke-linejoin="miter" stroke-linecap="butt" stroke-miterlimit="4" stroke-width="1.28" d="M5.12 0.64h21.76c2.474 0 4.48 2.006 4.48 4.48v21.76c0 2.474-2.006 4.48-4.48 4.48h-21.76c-2.474 0-4.48-2.006-4.48-4.48v-21.76c0-2.474 2.006-4.48 4.48-4.48z"></path>
<path d="M20.008 15.616h-2.514v9.984h-3.733v-9.984h-2.24v-3.072h2.24v-1.851c0.003-2.694 1.091-4.293 4.177-4.293h2.543v3.072h-1.706c-1.202 0-1.28 0.462-1.28 1.323v1.749h2.987l-0.472 3.072z"></path>
</symbol>
<symbol id="icon-inst" viewBox="0 0 32 32">
<path stroke-linejoin="miter" stroke-linecap="butt" stroke-miterlimit="4" stroke-width="1.28" d="M5.12 0.64h21.76c2.474 0 4.48 2.006 4.48 4.48v21.76c0 2.474-2.006 4.48-4.48 4.48h-21.76c-2.474 0-4.48-2.006-4.48-4.48v-21.76c0-2.474 2.006-4.48 4.48-4.48z"></path>
<path stroke-linejoin="miter" stroke-linecap="butt" stroke-miterlimit="4" stroke-width="1.28" d="M22.4 16c0 3.535-2.865 6.4-6.4 6.4s-6.4-2.865-6.4-6.4c0-3.535 2.865-6.4 6.4-6.4s6.4 2.865 6.4 6.4z"></path>
<path d="M26.88 7.040c0 1.060-0.86 1.92-1.92 1.92s-1.92-0.86-1.92-1.92c0-1.060 0.86-1.92 1.92-1.92s1.92 0.86 1.92 1.92z"></path>
</symbol>
<symbol id="icon-Rectangle-31" viewBox="0 0 22 32">
<path stroke-linejoin="miter" stroke-linecap="butt" stroke-miterlimit="4" stroke-width="1.6" d="M11.2 30.379l-9.285-9.46M11.2 30.379l9.276-9.1M11.2 30.379l0.287-30.355"></path>
</symbol>
</defs>
</svg>
