<!-- Generated by IcoMoon.io -->
<svg version="1.1" xmlns="http://www.w3.org/2000/svg" width="143" height="32" viewBox="0 0 143 32">
<title>dash</title>
<path d="M72.233 24.436h0.145c0.136 0 0.262-0.058 0.378-0.175s0.213-0.252 0.291-0.407c0.097-0.155 0.165-0.32 0.204-0.495 0.039-0.194 0.058-0.368 0.058-0.524v-15.302l-7.505 17.513-7.127-16.611v14.4c0 0.155 0.019 0.33 0.058 0.524 0.039 0.175 0.097 0.339 0.175 0.495 0.097 0.155 0.204 0.291 0.32 0.407s0.252 0.175 0.407 0.175h0.145v0.291h-3.171v-0.291h0.145c0.136 0 0.262-0.058 0.378-0.175s0.213-0.252 0.291-0.407c0.078-0.155 0.136-0.32 0.175-0.495 0.039-0.194 0.058-0.368 0.058-0.524v-15.505c0-0.136-0.019-0.291-0.058-0.465s-0.097-0.339-0.175-0.495c-0.078-0.155-0.175-0.281-0.291-0.378-0.116-0.116-0.242-0.175-0.378-0.175h-0.145v-0.291h2.967l6.749 15.913 6.749-15.913h3.287v0.291h-0.145c-0.155 0-0.291 0.058-0.407 0.175-0.116 0.097-0.223 0.223-0.32 0.378-0.078 0.155-0.136 0.32-0.175 0.495s-0.058 0.33-0.058 0.465v15.505c0 0.155 0.019 0.33 0.058 0.524 0.039 0.175 0.097 0.339 0.175 0.495 0.097 0.155 0.204 0.291 0.32 0.407s0.252 0.175 0.407 0.175h0.145v0.291h-4.131v-0.291zM80.941 24.436h0.145c0.155 0 0.291-0.048 0.407-0.145 0.116-0.116 0.213-0.252 0.291-0.407 0.097-0.155 0.165-0.32 0.204-0.495 0.058-0.175 0.087-0.339 0.087-0.495v-15.564c0-0.136-0.029-0.291-0.087-0.465-0.039-0.175-0.107-0.339-0.204-0.495-0.078-0.155-0.175-0.281-0.291-0.378-0.116-0.116-0.252-0.175-0.407-0.175h-0.145v-0.291h11.2v2.705h-0.291c-0.039-0.446-0.213-0.834-0.524-1.164-0.31-0.349-0.795-0.524-1.455-0.524h-5.847v7.36h4.829c0.446 0 0.815-0.136 1.105-0.407 0.31-0.272 0.465-0.592 0.465-0.96h0.291v3.636h-0.291c0-0.349-0.145-0.65-0.436-0.902s-0.669-0.378-1.135-0.378h-4.829v8.815h6.371c0.368 0 0.688-0.087 0.96-0.262s0.495-0.378 0.669-0.611c0.194-0.252 0.33-0.514 0.407-0.785 0.097-0.291 0.145-0.533 0.145-0.727h0.291v3.404h-11.927v-0.291zM108.413 24.436h0.145c0.136 0 0.262-0.048 0.378-0.145 0.116-0.116 0.213-0.252 0.291-0.407 0.097-0.175 0.165-0.349 0.204-0.524 0.039-0.194 0.058-0.368 0.058-0.524v-7.913h-9.309v7.913c0 0.155 0.019 0.33 0.058 0.524 0.039 0.175 0.097 0.339 0.175 0.495s0.165 0.291 0.262 0.407c0.116 0.116 0.252 0.175 0.407 0.175h0.145v0.291h-4.073v-0.291h0.145c0.136 0 0.262-0.048 0.378-0.145 0.116-0.116 0.213-0.252 0.291-0.407 0.097-0.175 0.165-0.349 0.204-0.524 0.039-0.194 0.058-0.368 0.058-0.524v-15.505c0-0.136-0.019-0.291-0.058-0.465s-0.097-0.339-0.175-0.495c-0.078-0.155-0.175-0.281-0.291-0.378-0.116-0.116-0.252-0.175-0.407-0.175h-0.145v-0.291h4.073v0.291h-0.145c-0.155 0-0.291 0.058-0.407 0.175-0.116 0.097-0.213 0.223-0.291 0.378-0.058 0.155-0.107 0.32-0.145 0.495s-0.058 0.33-0.058 0.465v6.575h9.309v-6.575c0-0.136-0.019-0.291-0.058-0.465s-0.097-0.339-0.175-0.495c-0.078-0.155-0.175-0.281-0.291-0.378-0.116-0.116-0.252-0.175-0.407-0.175h-0.145v-0.291h4.073v0.291h-0.145c-0.155 0-0.291 0.058-0.407 0.175-0.116 0.097-0.213 0.223-0.291 0.378-0.058 0.155-0.107 0.32-0.145 0.495s-0.058 0.33-0.058 0.465v15.505c0 0.155 0.019 0.33 0.058 0.524 0.058 0.175 0.126 0.339 0.204 0.495s0.165 0.291 0.262 0.407c0.116 0.116 0.242 0.175 0.378 0.175h0.145v0.291h-4.073v-0.291zM116.706 24.436h0.145c0.136 0 0.252-0.058 0.349-0.175 0.116-0.116 0.213-0.252 0.291-0.407s0.136-0.32 0.175-0.495c0.039-0.194 0.058-0.368 0.058-0.524v-15.505c0-0.136-0.029-0.291-0.087-0.465-0.039-0.175-0.097-0.339-0.175-0.495s-0.175-0.281-0.291-0.378c-0.097-0.116-0.213-0.175-0.349-0.175h-0.145v-0.291h4.102v0.291h-0.233c-0.136 0.019-0.262 0.087-0.378 0.204-0.097 0.116-0.184 0.252-0.262 0.407s-0.136 0.32-0.175 0.495c-0.039 0.155-0.058 0.291-0.058 0.407v6.575h1.92c0.175-1.105 0.514-2.172 1.018-3.2 0.524-1.047 1.193-1.978 2.007-2.793s1.775-1.464 2.88-1.949c1.105-0.485 2.356-0.727 3.753-0.727 1.513 0 2.851 0.272 4.015 0.815 1.183 0.524 2.182 1.241 2.996 2.153 0.815 0.892 1.425 1.939 1.833 3.142 0.427 1.183 0.64 2.424 0.64 3.724 0 1.455-0.252 2.793-0.756 4.015s-1.202 2.269-2.095 3.142c-0.892 0.873-1.939 1.561-3.142 2.065-1.202 0.485-2.502 0.727-3.898 0.727-1.493 0-2.822-0.272-3.985-0.815-1.144-0.543-2.114-1.261-2.909-2.153s-1.406-1.92-1.833-3.084c-0.407-1.164-0.611-2.376-0.611-3.636v-0.436h-1.833v7.942c0 0.155 0.019 0.32 0.058 0.495 0.058 0.175 0.126 0.349 0.204 0.524 0.078 0.155 0.175 0.291 0.291 0.407s0.242 0.175 0.378 0.175h0.204v0.291h-4.102v-0.291zM131.222 24c1.299-0.058 2.424-0.349 3.375-0.873 0.97-0.543 1.765-1.222 2.385-2.036 0.621-0.834 1.076-1.745 1.367-2.735 0.31-0.989 0.465-1.968 0.465-2.938 0-1.067-0.184-2.143-0.553-3.229s-0.892-2.065-1.571-2.938c-0.679-0.892-1.513-1.61-2.502-2.153-0.97-0.562-2.075-0.844-3.316-0.844-1.202 0-2.269 0.272-3.2 0.815-0.912 0.524-1.687 1.202-2.327 2.036-0.621 0.834-1.096 1.765-1.425 2.793s-0.495 2.036-0.495 3.025c0 1.067 0.184 2.143 0.553 3.229 0.388 1.067 0.921 2.036 1.6 2.909 0.698 0.873 1.522 1.581 2.473 2.124s2.007 0.815 3.171 0.815z"></path>
<path fill="none" stroke-linejoin="miter" stroke-linecap="butt" stroke-miterlimit="4" stroke-width="1.4545" stroke="#000" d="M0 13.091h33.455"></path>
<path fill="none" stroke-linejoin="miter" stroke-linecap="butt" stroke-miterlimit="4" stroke-width="1.4545" stroke="#000" d="M0 21.818h33.455"></path>
</svg>
