<!-- Generated by IcoMoon.io -->
<svg version="1.1" xmlns="http://www.w3.org/2000/svg" width="32" height="32" viewBox="0 0 32 32">
<title>fb</title>
<path fill="none" stroke-linejoin="miter" stroke-linecap="butt" stroke-miterlimit="4" stroke-width="1.28" stroke="white" d="M5.12 0.64h21.76c2.474 0 4.48 2.006 4.48 4.48v21.76c0 2.474-2.006 4.48-4.48 4.48h-21.76c-2.474 0-4.48-2.006-4.48-4.48v-21.76c0-2.474 2.006-4.48 4.48-4.48z"></path>
<path fill="white" stroke="white" d="M20.008 15.616h-2.514v9.984h-3.733v-9.984h-2.24v-3.072h2.24v-1.851c0.003-2.694 1.091-4.293 4.177-4.293h2.543v3.072h-1.706c-1.202 0-1.28 0.462-1.28 1.323v1.749h2.987l-0.472 3.072z"></path>
</svg>
