<!-- Generated by IcoMoon.io -->
<svg version="1.1" xmlns="http://www.w3.org/2000/svg" width="32" height="32" viewBox="0 0 32 32">
<title>inst</title>
<path fill="none" stroke-linejoin="miter" stroke-linecap="butt" stroke-miterlimit="4" stroke-width="1.28" stroke="white" d="M5.12 0.64h21.76c2.474 0 4.48 2.006 4.48 4.48v21.76c0 2.474-2.006 4.48-4.48 4.48h-21.76c-2.474 0-4.48-2.006-4.48-4.48v-21.76c0-2.474 2.006-4.48 4.48-4.48z"></path>
<path fill="none" stroke-linejoin="miter" stroke-linecap="butt" stroke-miterlimit="4" stroke-width="1.28" stroke="white" d="M22.4 16c0 3.535-2.865 6.4-6.4 6.4s-6.4-2.865-6.4-6.4c0-3.535 2.865-6.4 6.4-6.4s6.4 2.865 6.4 6.4z"></path>
<path  fill="none" stroke="white" d="M26.88 7.040c0 1.060-0.86 1.92-1.92 1.92s-1.92-0.86-1.92-1.92c0-1.060 0.86-1.92 1.92-1.92s1.92 0.86 1.92 1.92z"></path>
</svg>
