<!-- Generated by IcoMoon.io -->
<svg version="1.1" xmlns="http://www.w3.org/2000/svg" width="93" height="32" viewBox="0 0 93 32">
<title>logo</title>
<path d="M0.613 28.46h0.068c0.064 0 0.123-0.027 0.177-0.082s0.1-0.118 0.136-0.191c0.045-0.073 0.077-0.15 0.095-0.232 0.018-0.091 0.027-0.172 0.027-0.245v-7.244c0-0.064-0.009-0.136-0.027-0.218s-0.050-0.159-0.095-0.232c-0.036-0.082-0.086-0.145-0.15-0.191-0.054-0.054-0.118-0.082-0.191-0.082h-0.068v-0.136h2.233c0.844 0 1.502 0.186 1.974 0.558 0.481 0.372 0.722 0.867 0.722 1.484 0 0.263-0.045 0.499-0.136 0.708s-0.209 0.395-0.354 0.558c-0.136 0.163-0.286 0.304-0.449 0.422-0.163 0.109-0.318 0.2-0.463 0.272 0.381 0.073 0.699 0.195 0.953 0.368s0.458 0.372 0.613 0.599c0.163 0.218 0.277 0.454 0.34 0.708s0.095 0.504 0.095 0.749c0 0.472-0.086 0.872-0.259 1.198-0.172 0.318-0.404 0.581-0.694 0.79-0.281 0.2-0.608 0.345-0.98 0.436-0.363 0.091-0.74 0.136-1.13 0.136h-2.437v-0.136zM5.188 26.117c-0.073-0.699-0.309-1.239-0.708-1.62s-0.962-0.572-1.688-0.572h-0.763v4.221h0.79c0.735 0 1.312-0.163 1.729-0.49 0.427-0.336 0.64-0.799 0.64-1.389v-0.15zM4.63 21.774c-0.027-0.526-0.213-0.944-0.558-1.253-0.336-0.309-0.79-0.463-1.362-0.463h-0.681v3.431h0.708c0.381 0 0.69-0.050 0.926-0.15 0.245-0.1 0.44-0.227 0.586-0.381 0.145-0.163 0.245-0.34 0.3-0.531s0.082-0.377 0.082-0.558v-0.095zM8.092 28.46h0.068c0.073 0 0.136-0.023 0.191-0.068 0.054-0.054 0.1-0.118 0.136-0.191 0.045-0.073 0.077-0.15 0.095-0.232 0.027-0.082 0.041-0.159 0.041-0.232v-7.285c0-0.064-0.014-0.136-0.041-0.218-0.018-0.082-0.050-0.159-0.095-0.232-0.036-0.073-0.082-0.132-0.136-0.177-0.054-0.054-0.118-0.082-0.191-0.082h-0.068v-0.136h5.243v1.266h-0.136c-0.018-0.209-0.1-0.39-0.245-0.545-0.145-0.163-0.372-0.245-0.681-0.245h-2.737v3.445h2.26c0.209 0 0.381-0.064 0.517-0.191 0.145-0.127 0.218-0.277 0.218-0.449h0.136v1.702h-0.136c0-0.163-0.068-0.304-0.204-0.422s-0.313-0.177-0.531-0.177h-2.26v4.126h2.982c0.172 0 0.322-0.041 0.449-0.123s0.232-0.177 0.313-0.286c0.091-0.118 0.154-0.241 0.191-0.368 0.045-0.136 0.068-0.25 0.068-0.34h0.136v1.593h-5.583v-0.136zM19.859 19.963c-0.672 0-1.257 0.123-1.757 0.368-0.49 0.236-0.899 0.549-1.226 0.94-0.327 0.381-0.572 0.812-0.735 1.294-0.154 0.481-0.232 0.958-0.232 1.43 0 0.536 0.104 1.062 0.313 1.58 0.209 0.508 0.495 0.962 0.858 1.362 0.372 0.39 0.803 0.708 1.294 0.953 0.49 0.236 1.021 0.354 1.593 0.354 0.163 0 0.354-0.018 0.572-0.054 0.227-0.036 0.449-0.104 0.667-0.204 0.218-0.109 0.418-0.259 0.599-0.449 0.191-0.191 0.336-0.44 0.436-0.749h0.136v1.512c-0.136 0-0.281 0.018-0.436 0.054-0.145 0.036-0.309 0.077-0.49 0.123-0.236 0.064-0.499 0.123-0.79 0.177-0.281 0.054-0.581 0.082-0.899 0.082-0.79 0-1.484-0.136-2.083-0.409s-1.098-0.626-1.498-1.062c-0.399-0.436-0.699-0.926-0.899-1.471-0.2-0.554-0.3-1.112-0.3-1.675s0.1-1.121 0.3-1.675c0.2-0.554 0.504-1.049 0.912-1.484 0.409-0.445 0.921-0.803 1.539-1.076s1.344-0.409 2.179-0.409c0.3 0 0.567 0.027 0.803 0.082 0.245 0.054 0.463 0.109 0.654 0.163 0.136 0.045 0.259 0.082 0.368 0.109 0.118 0.018 0.232 0.027 0.34 0.027v1.512h-0.136c-0.054-0.281-0.154-0.513-0.3-0.694-0.145-0.191-0.318-0.336-0.517-0.436-0.191-0.1-0.399-0.168-0.626-0.204-0.218-0.045-0.431-0.068-0.64-0.068zM29.8 28.46h0.068c0.064 0 0.123-0.023 0.177-0.068 0.054-0.054 0.1-0.118 0.136-0.191 0.045-0.082 0.077-0.163 0.095-0.245 0.018-0.091 0.027-0.172 0.027-0.245v-3.704h-4.357v3.704c0 0.073 0.009 0.154 0.027 0.245 0.018 0.082 0.045 0.159 0.082 0.232s0.077 0.136 0.123 0.191c0.054 0.054 0.118 0.082 0.191 0.082h0.068v0.136h-1.906v-0.136h0.068c0.064 0 0.123-0.023 0.177-0.068 0.054-0.054 0.1-0.118 0.136-0.191 0.045-0.082 0.077-0.163 0.095-0.245 0.018-0.091 0.027-0.172 0.027-0.245v-7.258c0-0.064-0.009-0.136-0.027-0.218s-0.045-0.159-0.082-0.232c-0.036-0.073-0.082-0.132-0.136-0.177-0.054-0.054-0.118-0.082-0.191-0.082h-0.068v-0.136h1.906v0.136h-0.068c-0.073 0-0.136 0.027-0.191 0.082-0.054 0.045-0.1 0.104-0.136 0.177-0.027 0.073-0.050 0.15-0.068 0.232s-0.027 0.154-0.027 0.218v3.077h4.357v-3.077c0-0.064-0.009-0.136-0.027-0.218s-0.045-0.159-0.082-0.232c-0.036-0.073-0.082-0.132-0.136-0.177-0.054-0.054-0.118-0.082-0.191-0.082h-0.068v-0.136h1.906v0.136h-0.068c-0.073 0-0.136 0.027-0.191 0.082-0.054 0.045-0.1 0.104-0.136 0.177-0.027 0.073-0.050 0.15-0.068 0.232s-0.027 0.154-0.027 0.218v7.258c0 0.073 0.009 0.154 0.027 0.245 0.027 0.082 0.059 0.159 0.095 0.232s0.077 0.136 0.123 0.191c0.054 0.054 0.113 0.082 0.177 0.082h0.068v0.136h-1.906v-0.136zM38.856 28.46h0.068c0.218 0 0.327-0.1 0.327-0.3 0-0.073-0.014-0.15-0.041-0.232l-1.226-3.309h-2.383l-1.185 3.254c-0.027 0.073-0.041 0.141-0.041 0.204 0 0.118 0.032 0.213 0.095 0.286 0.064 0.064 0.132 0.095 0.204 0.095h0.068v0.136h-1.511v-0.136h0.068c0.118 0 0.231-0.068 0.34-0.204 0.118-0.145 0.213-0.313 0.286-0.504l3.118-8.306 3.050 8.225c0.064 0.182 0.15 0.359 0.259 0.531 0.118 0.172 0.268 0.259 0.449 0.259h0.068v0.136h-2.015v-0.136zM35.738 24.157h2.097l-1.048-2.846-1.048 2.846zM46.858 28.46h0.068c0.064 0 0.123-0.027 0.177-0.082s0.1-0.118 0.136-0.191c0.045-0.073 0.077-0.15 0.095-0.232 0.018-0.091 0.027-0.172 0.027-0.245v-7.244c0-0.064-0.009-0.136-0.027-0.218s-0.050-0.159-0.095-0.232c-0.036-0.082-0.086-0.145-0.15-0.191-0.054-0.054-0.118-0.082-0.191-0.082h-0.068v-0.136h2.233c0.844 0 1.502 0.186 1.974 0.558 0.481 0.372 0.722 0.867 0.722 1.484 0 0.263-0.045 0.499-0.136 0.708s-0.209 0.395-0.354 0.558c-0.136 0.163-0.286 0.304-0.449 0.422-0.163 0.109-0.318 0.2-0.463 0.272 0.381 0.073 0.699 0.195 0.953 0.368s0.458 0.372 0.613 0.599c0.163 0.218 0.277 0.454 0.34 0.708s0.095 0.504 0.095 0.749c0 0.472-0.086 0.872-0.259 1.198-0.173 0.318-0.404 0.581-0.694 0.79-0.281 0.2-0.608 0.345-0.98 0.436-0.363 0.091-0.74 0.136-1.13 0.136h-2.437v-0.136zM51.433 26.117c-0.073-0.699-0.309-1.239-0.708-1.62s-0.962-0.572-1.688-0.572h-0.763v4.221h0.79c0.735 0 1.312-0.163 1.729-0.49 0.427-0.336 0.64-0.799 0.64-1.389v-0.15zM50.875 21.774c-0.027-0.526-0.213-0.944-0.558-1.253-0.336-0.309-0.79-0.463-1.362-0.463h-0.681v3.431h0.708c0.381 0 0.69-0.050 0.926-0.15 0.245-0.1 0.44-0.227 0.586-0.381 0.145-0.163 0.245-0.34 0.3-0.531s0.082-0.377 0.082-0.558v-0.095zM58.652 19.963c-0.672 0-1.257 0.123-1.757 0.368-0.49 0.236-0.899 0.549-1.226 0.94-0.327 0.381-0.572 0.812-0.735 1.294-0.154 0.481-0.231 0.958-0.231 1.43 0 0.536 0.104 1.062 0.313 1.58 0.209 0.508 0.495 0.962 0.858 1.362 0.372 0.39 0.803 0.708 1.294 0.953 0.49 0.236 1.021 0.354 1.593 0.354 0.163 0 0.354-0.018 0.572-0.054 0.227-0.036 0.449-0.104 0.667-0.204 0.218-0.109 0.418-0.259 0.599-0.449 0.191-0.191 0.336-0.44 0.436-0.749h0.136v1.512c-0.136 0-0.281 0.018-0.436 0.054-0.145 0.036-0.309 0.077-0.49 0.123-0.236 0.064-0.499 0.123-0.79 0.177-0.281 0.054-0.581 0.082-0.899 0.082-0.79 0-1.484-0.136-2.083-0.409s-1.098-0.626-1.498-1.062c-0.399-0.436-0.699-0.926-0.899-1.471-0.2-0.554-0.3-1.112-0.3-1.675s0.1-1.121 0.3-1.675c0.2-0.554 0.504-1.049 0.912-1.484 0.408-0.445 0.921-0.803 1.539-1.076s1.344-0.409 2.179-0.409c0.3 0 0.567 0.027 0.803 0.082 0.245 0.054 0.463 0.109 0.654 0.163 0.136 0.045 0.259 0.082 0.368 0.109 0.118 0.018 0.231 0.027 0.34 0.027v1.512h-0.136c-0.054-0.281-0.154-0.513-0.3-0.694-0.145-0.191-0.318-0.336-0.517-0.436-0.191-0.1-0.399-0.168-0.626-0.204-0.218-0.045-0.431-0.068-0.64-0.068zM63.16 28.46h0.068c0.073 0 0.136-0.023 0.191-0.068 0.054-0.054 0.1-0.118 0.136-0.191 0.045-0.073 0.077-0.15 0.095-0.232 0.027-0.082 0.041-0.159 0.041-0.232v-7.285c0-0.064-0.014-0.136-0.041-0.218-0.018-0.082-0.050-0.159-0.095-0.232-0.036-0.073-0.082-0.132-0.136-0.177-0.054-0.054-0.118-0.082-0.191-0.082h-0.068v-0.136h5.243v1.266h-0.136c-0.018-0.209-0.1-0.39-0.245-0.545-0.145-0.163-0.372-0.245-0.681-0.245h-2.737v3.445h2.26c0.209 0 0.381-0.064 0.517-0.191 0.145-0.127 0.218-0.277 0.218-0.449h0.136v1.702h-0.136c0-0.163-0.068-0.304-0.204-0.422s-0.313-0.177-0.531-0.177h-2.26v4.126h2.982c0.173 0 0.322-0.041 0.449-0.123s0.232-0.177 0.313-0.286c0.091-0.118 0.154-0.241 0.191-0.368 0.045-0.136 0.068-0.25 0.068-0.34h0.136v1.593h-5.583v-0.136zM72.479 28.46h0.068v0.136h-1.961v-0.136h0.068c0.072 0 0.136-0.023 0.191-0.068 0.054-0.054 0.099-0.118 0.136-0.191 0.045-0.073 0.077-0.15 0.095-0.232s0.027-0.159 0.027-0.232v-7.285c0-0.064-0.010-0.136-0.027-0.218s-0.050-0.159-0.095-0.232c-0.037-0.073-0.082-0.132-0.136-0.177-0.054-0.054-0.118-0.082-0.191-0.082h-0.068v-0.136h5.243v1.443h-0.136c0-0.327-0.073-0.567-0.218-0.722-0.136-0.163-0.354-0.245-0.654-0.245h-2.791v7.653c0 0.073 0.009 0.15 0.027 0.232s0.045 0.159 0.082 0.232c0.045 0.073 0.095 0.136 0.15 0.191 0.054 0.045 0.118 0.068 0.191 0.068zM83.487 28.119v1.702h-0.136c-0.009-0.118-0.041-0.25-0.095-0.395s-0.131-0.281-0.231-0.409c-0.091-0.118-0.2-0.218-0.327-0.3s-0.268-0.123-0.422-0.123h-6.277c-0.155 0-0.295 0.041-0.422 0.123-0.127 0.091-0.24 0.195-0.34 0.313-0.091 0.127-0.168 0.263-0.231 0.409-0.054 0.145-0.086 0.272-0.095 0.381h-0.136v-1.702h0.599c0.291 0 0.495-0.168 0.613-0.504l3.132-8.211 3.159 8.17c0.063 0.136 0.15 0.263 0.259 0.381 0.109 0.109 0.236 0.163 0.381 0.163h0.572zM76.284 28.119h5.243l-2.628-6.768-2.614 6.768zM90.613 28.46h0.068c0.218 0 0.327-0.1 0.327-0.3 0-0.073-0.014-0.15-0.041-0.232l-1.226-3.309h-2.383l-1.185 3.254c-0.027 0.073-0.041 0.141-0.041 0.204 0 0.118 0.031 0.213 0.095 0.286 0.063 0.064 0.131 0.095 0.204 0.095h0.068v0.136h-1.511v-0.136h0.068c0.118 0 0.231-0.068 0.34-0.204 0.118-0.145 0.213-0.313 0.286-0.504l3.118-8.306 3.050 8.225c0.063 0.182 0.15 0.359 0.259 0.531 0.118 0.172 0.268 0.259 0.449 0.259h0.068v0.136h-2.015v-0.136zM87.495 24.157h2.097l-1.049-2.846-1.049 2.846z"></path>
<path fill="none" stroke-linejoin="miter" stroke-linecap="butt" stroke-miterlimit="4" stroke-width="0.6809" stroke="white" d="M49.534 6.128c0 1.586-0.772 3.046-1.574 4.13-0.398 0.538-0.797 0.975-1.096 1.276-0.104 0.105-0.196 0.193-0.271 0.264-0.075-0.070-0.167-0.159-0.271-0.264-0.299-0.301-0.698-0.738-1.096-1.276-0.802-1.084-1.574-2.544-1.574-4.13s0.772-3.046 1.574-4.13c0.398-0.538 0.797-0.975 1.096-1.276 0.104-0.105 0.196-0.193 0.271-0.264 0.075 0.070 0.167 0.159 0.271 0.264 0.299 0.301 0.698 0.738 1.096 1.276 0.802 1.084 1.574 2.544 1.574 4.13z"></path>
<path fill="none" stroke-linejoin="miter" stroke-linecap="butt" stroke-miterlimit="4" stroke-width="0.6809" stroke="white" d="M45.315 5.978c0.995 1.135 1.384 2.79 1.514 4.209 0.065 0.703 0.065 1.334 0.048 1.788-0.006 0.174-0.015 0.322-0.023 0.438-0.101 0.009-0.231 0.019-0.383 0.027-0.398 0.019-0.95 0.019-1.566-0.055-1.243-0.149-2.693-0.593-3.688-1.728s-1.384-2.79-1.515-4.209c-0.065-0.703-0.065-1.333-0.048-1.788 0.006-0.174 0.015-0.322 0.023-0.438 0.101-0.009 0.231-0.019 0.383-0.026 0.398-0.019 0.95-0.019 1.566 0.055 1.243 0.149 2.694 0.593 3.688 1.728z"></path>
<path fill="none" stroke-linejoin="miter" stroke-linecap="butt" stroke-miterlimit="4" stroke-width="0.6809" stroke="white" d="M48.782 5.978c-0.995 1.135-1.384 2.79-1.514 4.209-0.065 0.703-0.065 1.334-0.048 1.788 0.006 0.174 0.015 0.322 0.023 0.438 0.101 0.009 0.231 0.019 0.383 0.027 0.398 0.019 0.95 0.019 1.566-0.055 1.243-0.149 2.693-0.593 3.688-1.728s1.384-2.79 1.515-4.209c0.065-0.703 0.065-1.333 0.048-1.788-0.006-0.174-0.015-0.322-0.023-0.438-0.101-0.009-0.231-0.019-0.383-0.026-0.398-0.019-0.95-0.019-1.566 0.055-1.243 0.149-2.694 0.593-3.688 1.728z"></path>
<path fill="none" stroke-linejoin="miter" stroke-linecap="butt" stroke-miterlimit="4" stroke-width="0.6809" stroke="white" d="M32 8.17h-30.638"></path>
<path fill="none" stroke-linejoin="miter" stroke-linecap="butt" stroke-miterlimit="4" stroke-width="0.6809" stroke="white" d="M92.596 8.17h-31.319"></path>
</svg>
