<!-- Generated by IcoMoon.io -->
<svg version="1.1" xmlns="http://www.w3.org/2000/svg" width="31" height="32" viewBox="0 0 31 32">
<title>vk</title>
<path fill="none" stroke-linejoin="miter" stroke-linecap="butt" stroke-miterlimit="4" stroke-width="1.2308" stroke="white" d="M4.923 1.436h20.923c2.379 0 4.308 1.929 4.308 4.308v20.923c0 2.379-1.929 4.308-4.308 4.308h-20.923c-2.379 0-4.308-1.929-4.308-4.308v-20.923c0-2.379 1.929-4.308 4.308-4.308z"></path>
<path  fill="white" stroke="white" d="M22.582 18.726c1.485 1.439 1.794 2.143 1.844 2.23 0.613 1.067-0.68 1.151-0.68 1.151l-2.477 0.037c0 0-0.535 0.11-1.234-0.395-0.928-0.663-2.196-2.394-2.875-2.169-0.691 0.228-0.471 2.042-0.471 2.042s0.006 0.222-0.151 0.401c-0.173 0.187-0.507 0.115-0.507 0.115h-0.713c0 0-2.644 0.012-4.801-2.336-2.349-2.558-4.313-7.343-4.313-7.343s-0.12-0.303 0.008-0.464c0.148-0.182 0.546-0.179 0.546-0.179h2.65c0 0 0.248 0.035 0.426 0.173 0.15 0.113 0.231 0.326 0.231 0.326s0.32 0.891 0.889 1.918c1.106 2.002 1.622 2.44 1.998 2.224 0.546-0.314 0.382-2.829 0.382-2.829s0.011-0.914-0.276-1.321c-0.223-0.317-0.638-0.41-0.822-0.436-0.15-0.017 0.095-0.381 0.412-0.542 0.476-0.242 1.321-0.26 2.315-0.248 0.775 0.009 1.067-0.003 1.067-0.003 0.914 0.231 0.605 1.125 0.605 3.259 0 0.686-0.12 1.65 0.354 1.967 0.203 0.141 0.933 0.162 2.173-2.045 0.591-1.047 1.056-2.030 1.056-2.030s0.1-0.222 0.248-0.314c0.156-0.098 0.362-0.098 0.362-0.098l2.789 0.014c0 0 0.839-0.11 0.972 0.288 0.142 0.415-0.343 1.142-1.48 2.731-1.872 2.61-2.081 2.368-0.529 3.876z"></path>
</svg>
