<!-- Generated by IcoMoon.io -->
<svg version="1.1" xmlns="http://www.w3.org/2000/svg" width="32" height="32" viewBox="0 0 32 32">
<title>whatsapp</title>
<path fill="none" stroke-linejoin="miter" stroke-linecap="butt" stroke-miterlimit="4" stroke-width="1.2308" stroke="white" d="M13.905 8.441c-0.141-0.678-0.414-0.743-0.662-0.8-0.202-0.048-0.434-0.093-0.667-0.137-0.229-0.044-0.626-0.023-1.016 0.293-0.393 0.313-1.467 1.050-1.821 2.9-0.353 1.847 0.556 3.874 0.681 4.157 0.128 0.281 1.617 4.625 4.87 6.808 2.705 1.812 3.352 1.679 4 1.739 0.652 0.057 2.237-0.516 2.694-1.339 0.457-0.82 0.601-1.572 0.545-1.746s-0.271-0.311-0.585-0.567c-0.311-0.255-1.851-1.489-2.148-1.677-0.295-0.185-0.515-0.291-0.819 0.039s-1.134 1.050-1.386 1.262c-0.252 0.212-0.458 0.204-0.773-0.048-0.311-0.255-1.357-0.865-2.444-2.4-0.845-1.194-1.311-2.556-1.442-2.972-0.132-0.413 0.088-0.583 0.299-0.738 0.19-0.137 0.434-0.373 0.651-0.559 0.214-0.187 0.301-0.33 0.466-0.559 0.163-0.229 0.147-0.459 0.097-0.664s-0.373-2.191-0.54-2.992z"></path>
<path fill="white" stroke="white" d="M4.611 25.212l0.562 0.187 0.104-0.313-0.211-0.253-0.455 0.379zM2.831 30.551l-0.562-0.187-0.331 0.993 1.022-0.227-0.129-0.579zM9.523 29.064l0.259-0.533-0.186-0.091-0.202 0.045 0.129 0.578zM30.222 15.737c0 7.855-6.368 14.222-14.222 14.222v1.185c8.509 0 15.407-6.898 15.407-15.407h-1.185zM16 1.514c7.855 0 14.222 6.367 14.222 14.222h1.185c0-8.509-6.898-15.407-15.407-15.407v1.185zM1.778 15.737c0-7.855 6.367-14.222 14.222-14.222v-1.185c-8.509 0-15.407 6.898-15.407 15.407h1.185zM5.066 24.833c-2.054-2.466-3.289-5.636-3.289-9.096h-1.185c0 3.747 1.339 7.184 3.563 9.855l0.911-0.759zM3.393 30.739l1.78-5.339-1.124-0.375-1.78 5.339 1.124 0.375zM9.395 28.486l-6.692 1.487 0.257 1.157 6.692-1.487-0.257-1.157zM16 29.959c-2.231 0-4.34-0.513-6.217-1.427l-0.519 1.066c2.036 0.991 4.322 1.547 6.736 1.547v-1.185z"></path>
</svg>
